<?xml version="1.0" encoding="UTF-8" standalone="no"?>
<svg
   xmlns:dc="http://purl.org/dc/elements/1.1/"
   xmlns:cc="http://creativecommons.org/ns#"
   xmlns:rdf="http://www.w3.org/1999/02/22-rdf-syntax-ns#"
   xmlns:svg="http://www.w3.org/2000/svg"
   xmlns="http://www.w3.org/2000/svg"
   xmlns:sodipodi="http://sodipodi.sourceforge.net/DTD/sodipodi-0.dtd"
   xmlns:inkscape="http://www.inkscape.org/namespaces/inkscape"
   width="210mm"
   height="297mm"
   viewBox="0 0 210 297"
   version="1.1"
   id="svg8"
   inkscape:version="1.0.2 (e86c8708, 2021-01-15)"
   sodipodi:docname="Mylog1.svg">
  <defs
     id="defs2" />
  <sodipodi:namedview
     id="base"
     pagecolor="#ffffff"
     bordercolor="#666666"
     borderopacity="1.0"
     inkscape:pageopacity="0.0"
     inkscape:pageshadow="2"
     inkscape:zoom="0.51936728"
     inkscape:cx="396.85039"
     inkscape:cy="561.25984"
     inkscape:document-units="mm"
     inkscape:current-layer="layer1"
     inkscape:document-rotation="0"
     showgrid="false"
     inkscape:window-width="1252"
     inkscape:window-height="791"
     inkscape:window-x="0"
     inkscape:window-y="25"
     inkscape:window-maximized="0" />
  <metadata
     id="metadata5">
    <rdf:RDF>
      <cc:Work
         rdf:about="">
        <dc:format>image/svg+xml</dc:format>
        <dc:type
           rdf:resource="http://purl.org/dc/dcmitype/StillImage" />
        <dc:title />
      </cc:Work>
    </rdf:RDF>
  </metadata>
  <g
     inkscape:label="Layer 1"
     inkscape:groupmode="layer"
     id="layer1"
     style="display:inline">
    <path
       style="fill:#550000;stroke:#000000;stroke-width:0.709331px;stroke-linecap:butt;stroke-linejoin:miter;stroke-opacity:1"
       d="m 49.941982,217.625 c -0.773656,12.03637 0,0 0,0 l -0.929267,29.35637 c -20.443902,0.1128 -27.468171,-0.20909 -27.468171,-0.20909 0,0 -1.891381,-7.36208 -4.888658,-14.74671 l 0.143639,28.3682 60.150629,0.97481 0.372894,-44.79265 c 0,0 -0.11252,-1.35092 -0.946909,-3.46348 -7.470904,-40.29869 77.472461,-94.62746 27.015531,-146.354116 26.8503,14.809269 63.73118,69.957146 35.01131,150.250936 l 0.71781,44.75993 57.6706,0.56635 -0.81512,-27.03523 -5.04586,13.64701 h -26.907 l -0.22363,-32.44817 c 29.47879,-34.03911 30.18105,-105.3671 7.4453,-135.485736 C 126.35642,15.569518 63.659306,50.605744 45.414632,72.595494 13.531757,111.02292 31.349274,191.29894 49.941982,217.625 Z"
       id="path28"
       sodipodi:nodetypes="ccccccccccccccccccsc" />
    <path
       style="fill:#ffaaaa;stroke:#000000;stroke-width:0.709331px;stroke-linecap:butt;stroke-linejoin:miter;stroke-opacity:1"
       d="m 70.716354,109.74194 c 0,0 18.193922,46.23768 29.604136,67.76454 12.20679,-26.64048 23.07129,-52.59165 35.87602,-80.370268 l 2.20647,119.873058 0.71781,44.75993 -26.84161,-0.54367 2.75968,-79.25401 -16.009724,37.79597 -17.106602,-42.26101 c -1.216015,17.00818 6.647933,84.1692 6.647933,84.1692 -0.793621,0.60541 0,0 -11.620313,-0.3071"
       id="path30"
       sodipodi:nodetypes="ccccccccccc" />
    <path
       style="fill:none;stroke:#000000;stroke-width:0.709331px;stroke-linecap:butt;stroke-linejoin:miter;stroke-opacity:1"
       d="M -11.907053,145.13513 Z"
       id="path34" />
    <path
       style="fill:none;stroke:#000000;stroke-width:0.709331px;stroke-linecap:butt;stroke-linejoin:miter;stroke-opacity:1"
       d="M -15.586646,139.55386 Z"
       id="path40" />
    <path
       style="fill:#008080;stroke:#000000;stroke-width:0.498999px;stroke-linecap:butt;stroke-linejoin:miter;stroke-opacity:1"
       d="m 66.688119,95.316211 16.672598,-0.706843 -12.425167,6.928202 -81.670761,20.66005 c 0,0 -13.728896,0.053 -21.406426,0.0797 l 15.517923,-7.85648 c 0,0 54.100202,-11.7776 83.311833,-19.104682 z"
       id="path42"
       sodipodi:nodetypes="ccccccc" />
    <path
       style="fill:#ffd5d5;stroke:#000000;stroke-width:0.709331px;stroke-linecap:butt;stroke-linejoin:miter;stroke-opacity:1"
       d="m 70.716354,109.74194 c 0,0 4.049689,70.75022 4.049689,73.11814 0,2.36795 0.325231,18.15415 0.325231,18.15415 v 7.49845 C 64.296537,186.73904 58.504223,159.04867 61.106257,137.08005 c 1.418973,-10.36709 5.112434,-18.67388 9.610097,-27.33811 z"
       id="path880"
       sodipodi:nodetypes="cscccc" />
    <path
       style="fill:none;stroke:#000000;stroke-width:0.709331px;stroke-linecap:butt;stroke-linejoin:miter;stroke-opacity:1"
       d="m 100.32049,177.50648 v 0"
       id="path882" />
    <path
       style="fill:#ffd5d5;stroke:#000000;stroke-width:0.709331px;stroke-linecap:butt;stroke-linejoin:miter;stroke-opacity:1"
       d="m 138.51172,105.11299 c -10.23488,16.92162 -30.6717,66.22566 -37.05326,73.97135 -2.325084,2.82211 -4.679701,-7.90581 -9.029216,-15.58513 23.419036,-26.28561 36.674946,-74.984705 10.962426,-96.740876 0,0 19.77795,-1.68248 35.12005,38.354656 z"
       id="path884"
       sodipodi:nodetypes="csccc" />
    <path
       style="fill:none;stroke:#000000;stroke-width:0.709331px;stroke-linecap:butt;stroke-linejoin:miter;stroke-opacity:1"
       d="M 116.07062,66.436742 Z"
       id="path886" />
    <path
       style="fill:#e3dbdb;stroke:#000000;stroke-width:0.709331px;stroke-linecap:butt;stroke-linejoin:miter;stroke-opacity:1"
       d="m 138.51172,105.11299 c 21.50398,36.74244 16.35019,77.54075 -0.10872,111.89628 -2.53087,-37.32109 -2.79812,-71.5903 -4.11928,-104.39784 z"
       id="path888"
       sodipodi:nodetypes="cccc" />
  </g>
</svg>
